<mxfile host="app.diagrams.net" modified="2023-09-11T06:43:41.957Z" agent="Mozilla/5.0 (Windows NT 10.0; Win64; x64) AppleWebKit/537.36 (KHTML, like Gecko) Chrome/114.0.0.0 Safari/537.36" etag="lffWQ8qqhX52Gd7UPSNm" version="21.6.3" type="github">
  <diagram name="第 1 页" id="f8KFN4mFjH0N_bolyb5r">
    <mxGraphModel dx="1687" dy="899" grid="1" gridSize="10" guides="1" tooltips="1" connect="1" arrows="1" fold="1" page="1" pageScale="1" pageWidth="827" pageHeight="1169" math="0" shadow="0">
      <root>
        <mxCell id="0" />
        <mxCell id="1" parent="0" />
        <mxCell id="tOuFkIZqAQHhiwoN-z9p-12" value="" style="rounded=0;whiteSpace=wrap;html=1;" vertex="1" parent="1">
          <mxGeometry x="1150" y="560" width="400" height="300" as="geometry" />
        </mxCell>
        <mxCell id="tOuFkIZqAQHhiwoN-z9p-11" value="" style="rounded=0;whiteSpace=wrap;html=1;" vertex="1" parent="1">
          <mxGeometry x="790" y="560" width="270" height="300" as="geometry" />
        </mxCell>
        <mxCell id="tOuFkIZqAQHhiwoN-z9p-10" value="" style="rounded=0;whiteSpace=wrap;html=1;" vertex="1" parent="1">
          <mxGeometry x="60" y="560" width="650" height="300" as="geometry" />
        </mxCell>
        <mxCell id="tOuFkIZqAQHhiwoN-z9p-1" value="商品中心" style="rounded=0;whiteSpace=wrap;html=1;" vertex="1" parent="1">
          <mxGeometry x="490" y="710" width="120" height="60" as="geometry" />
        </mxCell>
        <mxCell id="tOuFkIZqAQHhiwoN-z9p-2" value="用户会员中心" style="rounded=0;whiteSpace=wrap;html=1;" vertex="1" parent="1">
          <mxGeometry x="300" y="585" width="120" height="60" as="geometry" />
        </mxCell>
        <mxCell id="tOuFkIZqAQHhiwoN-z9p-3" value="订单中心" style="rounded=0;whiteSpace=wrap;html=1;" vertex="1" parent="1">
          <mxGeometry x="890" y="600" width="120" height="60" as="geometry" />
        </mxCell>
        <mxCell id="tOuFkIZqAQHhiwoN-z9p-4" value="购物车中心" style="rounded=0;whiteSpace=wrap;html=1;" vertex="1" parent="1">
          <mxGeometry x="120" y="710" width="120" height="60" as="geometry" />
        </mxCell>
        <mxCell id="tOuFkIZqAQHhiwoN-z9p-5" value="支付中心" style="rounded=0;whiteSpace=wrap;html=1;" vertex="1" parent="1">
          <mxGeometry x="890" y="760" width="120" height="60" as="geometry" />
        </mxCell>
        <mxCell id="tOuFkIZqAQHhiwoN-z9p-6" value="基础配置中心" style="rounded=0;whiteSpace=wrap;html=1;" vertex="1" parent="1">
          <mxGeometry x="280" y="710" width="120" height="60" as="geometry" />
        </mxCell>
        <mxCell id="tOuFkIZqAQHhiwoN-z9p-7" value="物流中心" style="rounded=0;whiteSpace=wrap;html=1;" vertex="1" parent="1">
          <mxGeometry x="1280" y="600" width="120" height="60" as="geometry" />
        </mxCell>
        <mxCell id="tOuFkIZqAQHhiwoN-z9p-8" value="售后中心" style="rounded=0;whiteSpace=wrap;html=1;" vertex="1" parent="1">
          <mxGeometry x="1280" y="740" width="120" height="60" as="geometry" />
        </mxCell>
        <mxCell id="tOuFkIZqAQHhiwoN-z9p-13" value="" style="endArrow=classic;html=1;rounded=0;entryX=0.474;entryY=-0.007;entryDx=0;entryDy=0;entryPerimeter=0;" edge="1" parent="1">
          <mxGeometry width="50" height="50" relative="1" as="geometry">
            <mxPoint x="360" y="585" as="sourcePoint" />
            <mxPoint x="947.98" y="582.9000000000001" as="targetPoint" />
            <Array as="points">
              <mxPoint x="360" y="505" />
              <mxPoint x="948" y="505" />
            </Array>
          </mxGeometry>
        </mxCell>
        <mxCell id="tOuFkIZqAQHhiwoN-z9p-14" value="" style="endArrow=classic;html=1;rounded=0;entryX=0.525;entryY=1.003;entryDx=0;entryDy=0;entryPerimeter=0;" edge="1" parent="1" target="tOuFkIZqAQHhiwoN-z9p-12">
          <mxGeometry width="50" height="50" relative="1" as="geometry">
            <mxPoint x="920" y="870" as="sourcePoint" />
            <mxPoint x="970" y="820" as="targetPoint" />
            <Array as="points">
              <mxPoint x="920" y="920" />
              <mxPoint x="1360" y="920" />
            </Array>
          </mxGeometry>
        </mxCell>
        <mxCell id="tOuFkIZqAQHhiwoN-z9p-15" value="下单，支付" style="text;html=1;strokeColor=none;fillColor=none;align=center;verticalAlign=middle;whiteSpace=wrap;rounded=0;" vertex="1" parent="1">
          <mxGeometry x="590" y="510" width="110" height="30" as="geometry" />
        </mxCell>
        <mxCell id="tOuFkIZqAQHhiwoN-z9p-16" value="履约" style="text;html=1;strokeColor=none;fillColor=none;align=center;verticalAlign=middle;whiteSpace=wrap;rounded=0;" vertex="1" parent="1">
          <mxGeometry x="1110" y="890" width="60" height="30" as="geometry" />
        </mxCell>
        <mxCell id="tOuFkIZqAQHhiwoN-z9p-17" value="" style="endArrow=classic;html=1;rounded=0;entryX=0.583;entryY=0;entryDx=0;entryDy=0;entryPerimeter=0;" edge="1" parent="1" target="tOuFkIZqAQHhiwoN-z9p-1">
          <mxGeometry width="50" height="50" relative="1" as="geometry">
            <mxPoint x="420" y="610" as="sourcePoint" />
            <mxPoint x="470" y="560" as="targetPoint" />
            <Array as="points">
              <mxPoint x="560" y="610" />
            </Array>
          </mxGeometry>
        </mxCell>
        <mxCell id="tOuFkIZqAQHhiwoN-z9p-18" value="" style="endArrow=classic;html=1;rounded=0;entryX=0.5;entryY=0;entryDx=0;entryDy=0;exitX=0;exitY=0.5;exitDx=0;exitDy=0;" edge="1" parent="1" source="tOuFkIZqAQHhiwoN-z9p-2" target="tOuFkIZqAQHhiwoN-z9p-4">
          <mxGeometry width="50" height="50" relative="1" as="geometry">
            <mxPoint x="210" y="650" as="sourcePoint" />
            <mxPoint x="260" y="600" as="targetPoint" />
            <Array as="points">
              <mxPoint x="180" y="615" />
            </Array>
          </mxGeometry>
        </mxCell>
        <mxCell id="tOuFkIZqAQHhiwoN-z9p-19" value="" style="endArrow=classic;html=1;rounded=0;entryX=1;entryY=0.5;entryDx=0;entryDy=0;exitX=0;exitY=0.5;exitDx=0;exitDy=0;" edge="1" parent="1" source="tOuFkIZqAQHhiwoN-z9p-1" target="tOuFkIZqAQHhiwoN-z9p-6">
          <mxGeometry width="50" height="50" relative="1" as="geometry">
            <mxPoint x="490" y="860" as="sourcePoint" />
            <mxPoint x="540" y="810" as="targetPoint" />
          </mxGeometry>
        </mxCell>
        <mxCell id="tOuFkIZqAQHhiwoN-z9p-22" value="仓库，字典配置" style="text;html=1;strokeColor=none;fillColor=none;align=center;verticalAlign=middle;whiteSpace=wrap;rounded=0;" vertex="1" parent="1">
          <mxGeometry x="400" y="710" width="90" height="30" as="geometry" />
        </mxCell>
        <mxCell id="tOuFkIZqAQHhiwoN-z9p-23" value="搜索，浏览" style="text;html=1;strokeColor=none;fillColor=none;align=center;verticalAlign=middle;whiteSpace=wrap;rounded=0;" vertex="1" parent="1">
          <mxGeometry x="460" y="615" width="90" height="30" as="geometry" />
        </mxCell>
        <mxCell id="tOuFkIZqAQHhiwoN-z9p-24" value="添加，删除商品" style="text;html=1;strokeColor=none;fillColor=none;align=center;verticalAlign=middle;whiteSpace=wrap;rounded=0;" vertex="1" parent="1">
          <mxGeometry x="190" y="620" width="90" height="30" as="geometry" />
        </mxCell>
        <mxCell id="tOuFkIZqAQHhiwoN-z9p-25" value="" style="endArrow=classic;html=1;rounded=0;exitX=1;exitY=0.5;exitDx=0;exitDy=0;entryX=0;entryY=0.5;entryDx=0;entryDy=0;" edge="1" parent="1" source="tOuFkIZqAQHhiwoN-z9p-3" target="tOuFkIZqAQHhiwoN-z9p-7">
          <mxGeometry width="50" height="50" relative="1" as="geometry">
            <mxPoint x="1220" y="670" as="sourcePoint" />
            <mxPoint x="1270" y="620" as="targetPoint" />
          </mxGeometry>
        </mxCell>
        <mxCell id="tOuFkIZqAQHhiwoN-z9p-26" value="" style="endArrow=classic;html=1;rounded=0;exitX=0.5;exitY=1;exitDx=0;exitDy=0;" edge="1" parent="1" source="tOuFkIZqAQHhiwoN-z9p-3" target="tOuFkIZqAQHhiwoN-z9p-5">
          <mxGeometry width="50" height="50" relative="1" as="geometry">
            <mxPoint x="970" y="720" as="sourcePoint" />
            <mxPoint x="1020" y="670" as="targetPoint" />
          </mxGeometry>
        </mxCell>
        <mxCell id="tOuFkIZqAQHhiwoN-z9p-27" value="退款，支付" style="text;html=1;strokeColor=none;fillColor=none;align=center;verticalAlign=middle;whiteSpace=wrap;rounded=0;" vertex="1" parent="1">
          <mxGeometry x="850" y="700" width="100" height="30" as="geometry" />
        </mxCell>
      </root>
    </mxGraphModel>
  </diagram>
</mxfile>
